<svg width="101" height="93" viewBox="0 0 101 93" fill="none" xmlns="http://www.w3.org/2000/svg">
<path d="M100.731 81.6415C99.9344 81.0023 81.2552 66.0665 74.6097 63.2077C69.0064 60.8089 52.9361 49.0415 48.1296 45.4912V45.4869C47.6043 45.106 46.9477 44.9528 46.3129 45.0754C45.6519 45.2067 45.0828 45.6138 44.7414 46.196C44.1505 47.1635 44.3387 48.4155 45.1923 49.164L58.7187 61.0665L53.3386 64.0257C53.2029 64.1001 53.1241 64.2402 53.1241 64.3934V72.0585C52.4456 72.2774 51.8503 72.702 51.4213 73.2711C50.804 74.0809 50.5501 75.1184 50.7296 76.1253C50.9047 77.1277 51.4913 78.0164 52.3537 78.5723L53.2817 79.1677V79.1633C53.3605 79.2115 53.448 79.2377 53.54 79.2334L62.4177 78.4498C63.639 79.032 73.826 83.7511 80.1118 81.2296L85.829 92.6592L85.8246 92.6548C85.9384 92.8562 86.1879 92.935 86.3981 92.8343C86.4987 92.7861 86.5732 92.7029 86.6082 92.5935C86.6432 92.4884 86.6301 92.3746 86.5775 92.2739L80.7159 80.4981C80.6152 80.2879 80.3657 80.2004 80.1556 80.2967C73.992 83.1289 62.7854 77.6964 62.6845 77.6395C62.6101 77.6264 62.5357 77.6264 62.4613 77.6395L53.6099 78.4231L52.8131 77.819C51.7625 77.1536 51.2722 75.884 51.6049 74.689C51.9376 73.4939 53.0145 72.6578 54.2578 72.6316L68.0733 72.3076V72.3032C68.2527 72.2989 68.4103 72.185 68.4672 72.0143L69.2289 69.4928C69.2815 69.3353 69.2333 69.1601 69.1064 69.0551L45.7384 48.5369C45.1912 48.0335 45.0817 47.2105 45.4801 46.5845C45.699 46.2299 46.0579 45.9804 46.4694 45.9016C46.8634 45.8316 47.2705 45.9279 47.5901 46.173C52.4098 49.7276 68.589 61.5384 74.2282 63.9814C80.7726 66.7962 100.003 82.135 100.161 82.293V82.2886C100.341 82.4375 100.603 82.4068 100.748 82.2273C100.892 82.0479 100.866 81.7852 100.687 81.6407L100.731 81.6415ZM58.1461 68.7102L60.4531 67.8128L62.7863 69.5813V71.63L58.3036 71.7306L58.1461 68.7102ZM67.7855 71.5249L63.64 71.6256V69.3799C63.64 69.2486 63.5787 69.1217 63.4693 69.0472L60.9347 67.1299L60.9391 65.6503C60.9566 65.5277 60.9215 65.4008 60.8428 65.3045C60.7596 65.2082 60.6414 65.1556 60.5188 65.1556C60.3919 65.1556 60.2737 65.2082 60.1905 65.3045C60.1117 65.4008 60.0767 65.5277 60.0986 65.6503V67.0511L57.7916 67.9485L56.3032 66.7053L56.2989 66.7009C56.115 66.5914 55.883 66.6308 55.7473 66.7928C55.6116 66.9592 55.6159 67.1955 55.7604 67.3531L57.3057 68.6314L57.4501 71.757L54.2808 71.8358C54.1889 71.8314 54.0926 71.8314 54.0006 71.8358V64.639L59.4244 61.6578L68.3897 69.5025L67.7855 71.5249ZM24.5259 38.8768L8.83662 42.8122H8.73594C8.54332 42.8166 8.37698 42.6852 8.33319 42.497C8.27629 42.2694 8.41199 42.0417 8.63525 41.9804L24.3245 38.0581C24.5477 38.0012 24.7754 38.1369 24.8279 38.3602C24.8848 38.5834 24.7491 38.8111 24.5258 38.8636L24.5259 38.8768ZM8.99463 44.8828C8.93773 44.6596 9.07343 44.4276 9.29668 44.3663L62.1907 31.0629V31.0673C62.4183 31.0148 62.646 31.1549 62.7072 31.3781C62.7554 31.6057 62.6197 31.829 62.3921 31.8859L9.47564 45.1848H9.37496C9.19547 45.176 9.04278 45.0579 8.99463 44.8828ZM9.58998 47.2599C9.53308 47.0322 9.6644 46.8046 9.89203 46.7433L25.5813 42.8079V42.8123C25.6951 42.7641 25.8264 42.7685 25.9359 42.8254C26.0453 42.8823 26.1241 42.983 26.1547 43.1012C26.1854 43.2238 26.1591 43.3507 26.0891 43.4514C26.019 43.5521 25.9052 43.6177 25.7826 43.6265L10.1158 47.5619H10.0151C9.81376 47.5794 9.62552 47.4525 9.56861 47.2599L9.58998 47.2599ZM10.1941 49.6238C10.1634 49.5187 10.1766 49.4005 10.2379 49.3042C10.2948 49.2123 10.3867 49.1422 10.4961 49.1204L63.3901 35.817C63.4996 35.7907 63.6134 35.8083 63.7053 35.8652C63.8016 35.9221 63.8673 36.014 63.8936 36.1191C63.9505 36.3467 63.8191 36.5743 63.5915 36.6356L10.6751 49.939H10.5744C10.3818 49.939 10.2155 49.8076 10.1717 49.6238H10.1941ZM19.7985 6.27667C19.8904 6.34234 19.9517 6.44303 19.9692 6.55246C19.9911 6.6619 19.9648 6.78009 19.8992 6.87202C19.8335 6.96395 19.7372 7.02524 19.6277 7.04275C19.5183 7.06026 19.4045 7.03399 19.3169 6.9727L16.1695 4.79706H16.1651C15.3202 4.22359 14.2389 4.1448 13.3152 4.58255C12.396 5.0203 11.7743 5.90896 11.6824 6.92451L11.3804 10.7462C11.3629 10.9694 11.179 11.1402 10.9558 11.1402C10.8419 11.1314 10.7413 11.0789 10.6668 10.9913C10.5968 10.9038 10.5618 10.7943 10.5749 10.6805L10.877 6.85884C10.9864 5.5368 11.7919 4.37233 12.9913 3.80763C14.1908 3.23854 15.6003 3.35236 16.6948 4.10093L19.7985 6.27667ZM10.6669 14.1213H10.6625C10.8901 14.1432 11.0565 14.3402 11.0434 14.5678C10.9646 15.5922 11.433 16.5859 12.2779 17.1681C13.1228 17.7547 14.2172 17.8422 15.1452 17.4045L22.0705 14.1213H22.0749C22.9986 13.6791 23.6202 12.773 23.6946 11.7442C23.7734 10.7199 23.2962 9.73052 22.4426 9.15708C22.3332 9.10017 22.2587 8.99949 22.2281 8.8813C22.1974 8.7631 22.2237 8.63615 22.2938 8.53547C22.3594 8.43917 22.4689 8.37351 22.5914 8.35599C22.714 8.34286 22.8322 8.38225 22.9241 8.46105C24.0185 9.21837 24.627 10.501 24.5176 11.823C24.4213 13.1407 23.6333 14.3007 22.4426 14.8699L15.5172 18.1662C15.0138 18.3982 14.4666 18.5208 13.915 18.5251C12.8776 18.5208 11.8882 18.0874 11.1834 17.3213C10.483 16.5596 10.1328 15.5352 10.216 14.5022C10.2379 14.2833 10.4217 14.1214 10.6406 14.1214L10.6669 14.1213ZM13.5824 11.3546H13.578C13.4686 11.3459 13.3679 11.2933 13.2935 11.2101C13.2234 11.1226 13.1884 11.0132 13.1972 10.9037L13.3548 8.94255C13.4117 8.19399 13.8669 7.53736 14.5455 7.21338C15.224 6.89381 16.0207 6.95948 16.638 7.3841L18.2533 8.50476C18.4415 8.63609 18.494 8.89874 18.3627 9.09136C18.2314 9.27959 17.9731 9.33212 17.7805 9.2008L16.1652 8.08014C15.7975 7.83061 15.3203 7.79122 14.9132 7.98383C14.5104 8.17207 14.2346 8.56605 14.1953 9.01256L14.0289 10.9737H14.0245C14.007 11.1882 13.8275 11.3546 13.613 11.3546L13.5824 11.3546ZM13.4948 12.4753H13.4905C13.5999 12.484 13.705 12.5366 13.775 12.6241C13.8494 12.7073 13.8801 12.8211 13.8713 12.9349C13.8363 13.3814 14.042 13.8192 14.4141 14.073C14.7862 14.3313 15.2634 14.3707 15.6749 14.1781L19.2164 12.4971C19.6279 12.3045 19.8993 11.9061 19.9343 11.4553C19.9562 11.0131 19.7548 10.5885 19.3959 10.3346C19.2076 10.2033 19.1595 9.94498 19.2864 9.75676C19.4178 9.56852 19.676 9.52037 19.8643 9.6517C20.4859 10.0719 20.8317 10.7942 20.7748 11.5428C20.7135 12.2958 20.2539 12.9567 19.5754 13.2807L16.0339 14.9617C15.7493 15.093 15.4385 15.1631 15.1233 15.1631C14.6987 15.1631 14.2828 15.0318 13.937 14.7822C13.3154 14.362 12.9695 13.6354 13.0396 12.8868C13.0352 12.7729 13.0834 12.6591 13.1665 12.5803C13.2497 12.4972 13.3635 12.4577 13.4773 12.4621L13.4948 12.4753ZM31.951 9.88811L31.9466 9.88373C31.3337 10.4047 30.9179 11.1226 30.769 11.9149L27.6084 11.7004C27.3983 11.7136 27.2276 11.8799 27.2101 12.09C27.1926 12.3045 27.337 12.4928 27.5428 12.5409L30.6815 12.7992C30.699 13.6003 30.9923 14.3707 31.5089 14.9836C32.1349 15.6884 33.0103 16.1174 33.9516 16.183H34.2449C36.1316 16.1699 37.69 14.7034 37.817 12.821C37.9308 11.3764 37.1647 10.0063 35.8777 9.34958C34.5863 8.68857 33.0278 8.86805 31.9248 9.80485L31.951 9.88811ZM37.0114 12.8211C36.9283 13.9111 36.206 14.8436 35.1729 15.2025C34.1441 15.5615 32.9972 15.2725 32.2574 14.4715C31.5176 13.6704 31.3206 12.5059 31.7583 11.5079C32.1961 10.5054 33.1854 9.86184 34.2754 9.86184H34.5031C35.2254 9.91438 35.8952 10.2602 36.3636 10.8162C36.8407 11.3677 37.0727 12.09 37.0114 12.8211ZM65.5445 15.5571L40.6536 13.5477C40.4216 13.5258 40.2508 13.3201 40.2727 13.0881C40.2815 12.9786 40.334 12.878 40.4172 12.8079C40.5004 12.7335 40.6098 12.6985 40.7192 12.7072L65.5755 14.7122V14.7166C65.7812 14.7472 65.9344 14.9267 65.9344 15.1368C65.9344 15.3426 65.7812 15.5221 65.5755 15.5571L65.5445 15.5571ZM8.81565 35.1462L58.2166 22.7136C63.9468 21.2733 69.7649 24.7535 71.2095 30.4882C72.6497 36.2228 69.1695 42.0411 63.4349 43.4811L62.1567 43.805C61.9334 48.883 56.3433 50.923 56.2863 50.923C56.1375 50.9799 55.9668 50.9449 55.8486 50.8355C55.7348 50.726 55.691 50.5684 55.7391 50.4196C56.0456 48.7605 55.6385 47.0533 54.6185 45.7137L53.0032 46.1165C52.793 46.134 52.6004 45.9983 52.5479 45.7925C52.4997 45.5868 52.6048 45.3767 52.8018 45.2979L54.6973 44.8163C54.8636 44.7726 55.0431 44.8426 55.1438 44.9827C56.1944 46.366 56.746 48.0645 56.7022 49.8024C58.1468 49.0976 61.3293 47.1234 61.3293 43.4593C61.3512 43.2754 61.4869 43.1222 61.6663 43.0784L63.2598 42.6844C68.5085 41.3362 71.691 36.013 70.3953 30.7517C69.0732 25.4547 63.7151 22.2285 58.4177 23.533L8.99434 35.9522C6.3897 36.53 4.1309 38.1366 2.73008 40.4042C1.32925 42.6761 0.909007 45.4122 1.55686 47.9993C2.20912 50.5864 3.88133 52.8015 6.18832 54.1367C8.49531 55.4718 11.2444 55.8177 13.8141 55.091L41.2837 48.1875H41.2793C41.5069 48.1306 41.7346 48.2663 41.7959 48.4896C41.8221 48.599 41.8046 48.7128 41.7521 48.8047C41.6952 48.901 41.5989 48.9711 41.4938 48.9974L14.0376 55.9096C13.184 56.1285 12.3085 56.2379 11.4286 56.2335C6.00924 56.2554 1.43023 52.2237 0.764893 46.848C0.0995575 41.4723 3.55819 36.4459 8.81565 35.1462ZM0.0299016 9.83948C0.524572 3.95164 5.68139 -0.430359 11.5738 0.0337056L62.3408 4.13554C66.3332 4.44198 69.8221 6.95904 71.3805 10.6537C72.9345 14.3484 72.2954 18.599 69.7257 21.6721C69.5681 21.8428 69.3099 21.8559 69.1348 21.7115C68.964 21.5626 68.9334 21.3044 69.0735 21.1249C71.433 18.3014 72.0239 14.4053 70.61 11.0127C69.1961 7.61577 66.0135 5.29118 62.3495 4.97605L11.5388 0.861106C6.16313 0.524034 1.50981 4.55144 1.07646 9.92264C0.638703 15.2896 4.58726 20.013 9.94984 20.5427L11.4076 20.6565L11.4032 20.6521C11.6046 20.6696 11.7666 20.8228 11.7841 21.0242C11.9942 23.9659 14.4413 26.2422 17.3874 26.2335C16.2272 24.9246 15.7458 23.1429 16.0872 21.4269C16.1222 21.208 16.3192 21.0548 16.538 21.0679L44.8571 23.3662C44.9665 23.3705 45.0716 23.4231 45.146 23.5062C45.2161 23.5938 45.2511 23.7032 45.238 23.8127C45.2292 23.9265 45.1767 24.0272 45.0935 24.0972C45.0103 24.1716 44.9009 24.2067 44.7914 24.1935L16.8893 21.9522H16.8849C16.631 23.6419 17.3708 25.3229 18.7891 26.2685C18.9467 26.3648 19.0167 26.5531 18.9686 26.7282C18.9336 26.8989 18.7847 27.0259 18.6096 27.0434H18.0712C16.4908 27.0434 11.8638 26.5969 11.0014 21.4401L9.88075 21.3525V21.3482C3.98854 20.8797 -0.415312 15.7317 0.031159 9.83898L0.0299016 9.83948Z" fill="white"/>
</svg>
