<svg width="132" height="94" viewBox="0 0 132 94" fill="none" xmlns="http://www.w3.org/2000/svg">
<path d="M122.269 60.0423H96.4822C96.7276 58.6953 96.0427 57.3482 94.8042 56.7603C93.5713 56.1724 92.0929 56.4864 91.2026 57.5309L89.0964 59.9739L89.1021 59.9682C88.9252 59.5743 88.6797 59.2204 88.3715 58.9179C87.7494 58.3471 86.9217 58.0446 86.077 58.0846C84.5644 58.1531 83.3258 59.3118 83.1546 60.8186L82.7322 64.1348V62.9933C82.698 61.0697 81.1854 59.5001 79.2619 59.3974C77.3383 59.289 75.666 60.6874 75.4262 62.5995L74.4045 70.7388L74.1534 70.6532V66.7776C74.1477 65.9443 73.7995 65.1509 73.1888 64.5858C72.578 64.0322 71.7789 63.7297 70.9514 63.7525C69.4503 63.8153 68.2173 64.9511 68.029 66.4408L67.3155 72.1715C67.1956 72.1258 67.07 72.1258 66.9502 72.1715L62.7549 74.466L58.9421 76.595C58.1829 77.0117 57.2354 76.869 56.6362 76.2468C56.2252 75.8587 56.0083 75.3164 56.0368 74.7514C56.0654 74.1921 56.3336 73.6669 56.7788 73.3245L58.9422 71.8633L63.6911 68.5471L65.5918 70.9272C65.6888 71.0585 65.8486 71.1384 66.0142 71.1327C66.1397 71.1384 66.2653 71.0984 66.3623 71.0185C66.4765 70.9272 66.5507 70.7959 66.5678 70.6532C66.5849 70.5105 66.5393 70.3679 66.4537 70.2537L49.0508 48.4847L60.9287 37.0463C62.5498 37.2975 71.3056 38.6216 79.0447 40.0999C82.4808 40.7449 85.0379 40.391 86.6417 39.0497L86.6474 39.044C87.6178 38.2164 88.1943 37.0177 88.2399 35.7449C88.2341 35.5394 88.1257 35.3568 87.9487 35.2597C87.9487 35.2597 82.1896 32.2346 71.2312 27.1375C73.1433 25.6763 79.4846 21.9092 88.4456 29.6775C88.5426 29.7688 88.6739 29.8145 88.8109 29.8088H121.774C121.922 29.8145 122.059 29.7574 122.168 29.6547C122.271 29.5576 122.328 29.415 122.328 29.2723C122.328 28.964 122.082 28.7129 121.774 28.7129H89.011C78.9139 20.0769 71.6359 25.3396 70.1294 26.6238L66.522 24.9572C52.9488 18.7642 38.0286 27.617 36.4081 28.6102H15.4896C15.3412 28.6102 15.2042 28.673 15.1015 28.7757C14.9988 28.8784 14.9417 29.0211 14.9474 29.1695C14.9417 29.3122 14.9987 29.4549 15.1015 29.552C15.2042 29.6547 15.3412 29.7118 15.4896 29.7061H36.5747C36.6832 29.7118 36.7859 29.6775 36.8772 29.6205C37.0256 29.5177 52.3221 19.6831 66.1012 25.9504C78.4758 31.6068 85.6112 35.2598 87.1396 36.0646H87.1453C87.0311 36.9265 86.5916 37.7085 85.9181 38.2564C84.6053 39.3523 82.2936 39.6149 79.2571 39.0441C70.7067 37.406 60.9176 35.9619 60.8328 35.9448L60.8271 35.9505C60.6616 35.9276 60.4904 35.979 60.3591 36.0932L38.0933 57.5889C37.4084 58.2453 36.9575 59.1072 36.8091 60.0432H15.4902C15.2219 60.0889 15.0221 60.3172 15.0221 60.5912C15.0221 60.8652 15.2219 61.0935 15.4902 61.1391H36.774C36.9738 63.4109 38.8802 65.1517 41.1576 65.1403C41.5686 65.1289 41.9795 65.0661 42.3733 64.952C42.2535 65.3173 42.185 65.694 42.1679 66.0764C42.1051 67.5718 42.8243 68.9931 44.0743 69.815C45.3243 70.637 46.9168 70.7454 48.2639 70.0947C48.1611 70.4258 48.104 70.7625 48.0869 71.105C48.0241 72.3436 48.5093 73.5423 49.4168 74.3927C50.2159 75.1233 51.2547 75.5343 52.3392 75.5457C53.2011 75.5457 54.0402 75.2831 54.7479 74.7866L54.9362 74.6382H54.942C54.8678 75.4886 55.1589 76.3276 55.7353 76.9555C56.3118 77.5833 57.128 77.9429 57.9786 77.9429C58.4923 77.9429 58.9946 77.8116 59.4398 77.5605L62.9158 75.6484L67.1682 78.7876C68.1956 79.5525 69.5028 79.8321 70.747 79.5467C71.997 79.2671 73.0586 78.4566 73.658 77.3265L74.36 77.8402C75.2733 78.5137 76.3806 78.879 77.5165 78.879C78.4926 78.8847 79.4457 78.6164 80.2791 78.1027C81.7859 77.1838 82.7392 75.5741 82.8191 73.8047C83.4755 74.1701 84.2175 74.3584 84.9653 74.3641C87.0715 74.3698 88.8979 72.9086 89.3489 70.8539H89.6C90.7131 70.8482 91.729 70.2089 92.2143 69.2043L96.0841 61.1506L122.272 61.1563C122.432 61.1792 122.597 61.1335 122.723 61.0308C122.848 60.9223 122.917 60.7682 122.917 60.6084C122.917 60.4429 122.848 60.2888 122.723 60.1803C122.597 60.0776 122.432 60.0319 122.272 60.0604L122.269 60.0423ZM38.8949 63.1702C38.2328 62.548 37.8617 61.6805 37.8617 60.7729C37.8617 59.8654 38.2328 58.9979 38.8949 58.3757L48.307 49.3003L52.605 54.6942L51.9201 55.3221L51.1153 56.0698L43.4155 63.1703H43.4098C42.1369 64.3576 40.1619 64.3574 38.8949 63.1702ZM44.1118 68.4156C43.5239 67.7935 43.2099 66.9658 43.2328 66.1097C43.2613 65.2592 43.6323 64.4487 44.2545 63.8723L52.6108 56.1439L53.2386 55.5731L57.7992 61.2694H57.6679L48.4327 68.6781C47.1484 69.7341 45.259 69.62 44.1118 68.4156ZM54.1233 73.878H54.1176C52.8904 74.7285 51.2351 74.6086 50.1449 73.5869C49.4714 72.959 49.1061 72.0686 49.1517 71.1496C49.1803 70.2307 49.6198 69.3687 50.3504 68.8094L57.8162 62.8789C57.9532 62.7648 58.0274 62.5992 58.0217 62.4223L58.3585 62.1426V62.1483C58.3642 62.1198 58.3642 62.0855 58.3585 62.057L62.8733 67.7135L58.1986 70.9841L56.1838 72.3711L56.0982 72.4567L54.1233 73.878ZM71.5087 78.0732C70.3614 78.7639 68.9117 78.6954 67.8386 77.8963L63.9972 75.0595L66.2462 73.7924L67.3991 74.1577C67.5418 74.2262 67.7074 74.2262 67.8558 74.1577C67.9928 74.0721 68.0898 73.9237 68.1012 73.7639L68.9916 66.6462C69.1229 65.7044 69.8992 64.9853 70.8466 64.9224C71.3832 64.8996 71.9026 65.0937 72.2907 65.459C72.6788 65.8243 72.9014 66.3323 72.9072 66.8631L73.0384 75.265C73.0384 76.4008 72.4619 77.4568 71.5087 78.0732ZM79.7165 77.1257C78.2553 78.0162 76.3946 77.9363 75.0132 76.9203L74.0657 76.2467C74.1513 75.91 74.197 75.5618 74.197 75.2079V71.8631L74.6936 72.0515C74.8477 72.1199 75.0189 72.1199 75.173 72.0515C75.3157 71.9601 75.4127 71.8117 75.4356 71.6462L76.5486 62.879C76.697 61.6404 77.7187 60.6986 78.9572 60.6416C79.6536 60.5903 80.3385 60.8414 80.8409 61.3266C81.3146 61.7946 81.5886 62.4282 81.6057 63.0959L81.7541 73.5298H81.7484C81.7484 75.0024 80.9779 76.3666 79.7165 77.1257ZM86.7486 72.7421C85.5727 73.4613 84.083 73.3928 82.9757 72.5766L82.8273 72.4739V68.7182L82.833 68.7239C82.9187 68.7467 83.01 68.7467 83.0956 68.7239C83.2326 68.6383 83.3296 68.4898 83.341 68.3243L84.26 61.0183C84.3799 60.0423 85.1904 59.2888 86.1778 59.2547C86.7201 59.2147 87.2509 59.4088 87.639 59.7912C88.0443 60.1736 88.2783 60.6987 88.2783 61.2524L88.4096 69.8597H88.4153C88.381 71.047 87.7361 72.1315 86.7029 72.725L86.7486 72.7421ZM91.2178 68.7238C90.9039 69.386 90.2132 69.7855 89.4769 69.7284L89.3456 61.3721L92.0339 58.2614C92.6789 57.5479 93.7463 57.4052 94.5455 57.9303C95.3503 58.4554 95.6471 59.4885 95.2532 60.3619L91.2178 68.7238ZM123.233 0.949029H90.7385C85.8926 0.697878 81.7602 4.41368 81.509 9.2596C81.2521 14.0998 84.9736 18.2322 89.8139 18.4834C90.1107 19.6707 89.928 20.9264 89.3059 21.9766C89.2031 22.1478 89.2031 22.359 89.3059 22.5302C89.3801 22.7186 89.557 22.8442 89.7568 22.8556H90.1791C91.5376 22.8556 95.7158 22.5359 96.9429 18.472H123.233C128.073 18.472 132 14.545 132 9.70478C132 4.85886 128.073 0.937585 123.233 0.937585L123.233 0.949029ZM123.233 17.462H96.4635C96.2123 17.462 95.9897 17.639 95.9384 17.8844C95.2934 20.2418 93.1187 21.8571 90.6757 21.7886C91.1038 20.5215 91.1495 19.163 90.807 17.873C90.767 17.6276 90.5558 17.4506 90.3104 17.4506C86.058 17.3308 82.7076 13.7862 82.8218 9.53387C82.9416 5.28148 86.4805 1.9311 90.7385 2.04522H123.233C127.359 2.22787 130.613 5.62399 130.613 9.75641C130.613 13.8831 127.359 17.2851 123.233 17.462ZM124.694 6.18334C124.7 6.32603 124.643 6.46872 124.54 6.57146C124.437 6.67991 124.3 6.73699 124.152 6.73699H89.7564C89.4539 6.73128 89.2142 6.48584 89.2142 6.18332C89.2142 5.88081 89.4596 5.64109 89.7564 5.64109H124.169C124.312 5.64109 124.449 5.69816 124.546 5.8009C124.643 5.90364 124.7 6.04064 124.694 6.18334ZM89.2145 8.87165C89.2259 8.57485 89.4599 8.33511 89.7567 8.32942H102.063C102.331 8.37508 102.525 8.60339 102.525 8.87737C102.525 9.15134 102.331 9.37965 102.063 9.42531H89.7567C89.4542 9.41961 89.2145 9.17416 89.2145 8.87165ZM124.694 11.56C124.7 11.7027 124.643 11.8454 124.54 11.9538C124.437 12.0565 124.3 12.1136 124.152 12.1136H89.7564C89.4882 12.068 89.2884 11.8397 89.2884 11.5657C89.2884 11.2974 89.4882 11.0634 89.7564 11.0177H124.169C124.46 11.0291 124.694 11.2689 124.694 11.56ZM102.599 14.2598C102.593 14.5566 102.354 14.7964 102.063 14.8021H89.7564C89.4882 14.7564 89.2884 14.5281 89.2884 14.2541C89.2884 13.9859 89.4882 13.7518 89.7564 13.7062H102.063C102.359 13.7176 102.599 13.963 102.599 14.2598ZM41.7533 75.487H15.4517C13.9905 70.7096 8.30552 71.1034 8.25978 71.1034H8.26549C8.06571 71.1091 7.88878 71.2347 7.81458 71.423C7.71183 71.5943 7.71183 71.8112 7.81458 71.9767C8.43673 73.0327 8.61938 74.2883 8.32258 75.4699C3.48235 75.721 -0.239178 79.8478 0.0120027 84.6937C0.25744 89.5339 4.3899 93.2554 9.23013 93.0042H41.7535C46.5994 93.0042 50.5207 89.083 50.5207 84.2371C50.5207 79.3968 46.5994 75.4699 41.7535 75.4699L41.7533 75.487ZM41.7533 92H9.25909C5.00671 92.1142 1.46228 88.7638 1.34801 84.5114C1.22815 80.259 4.58428 76.7146 8.83666 76.5946C9.0821 76.5889 9.29329 76.4177 9.34466 76.1722C9.69855 74.888 9.6643 73.5295 9.25904 72.2566C11.6963 72.1939 13.8652 73.8035 14.5045 76.1608C14.5672 76.4063 14.7898 76.5832 15.0467 76.5832H41.753C43.8592 76.4919 45.9084 77.2624 47.4266 78.7179C48.9449 80.1734 49.8067 82.1882 49.8067 84.2887C49.8067 86.3949 48.9449 88.4097 47.4266 89.8652C45.9083 91.3207 43.8594 92.0914 41.7533 92ZM43.2145 87.8676V87.8619C43.2145 88.0046 43.1574 88.1416 43.0603 88.2443C42.9576 88.3471 42.8206 88.4041 42.6779 88.4041H8.32219C8.05393 88.4041 7.82561 88.2044 7.79706 87.9361C7.79135 87.7877 7.84843 87.6507 7.95117 87.5423C8.05392 87.4395 8.1909 87.3824 8.3393 87.3824H42.7345C43.037 87.3882 43.2767 87.6336 43.2767 87.9361L43.2145 87.8676ZM7.79789 85.1735C7.79219 85.0308 7.84926 84.8881 7.95201 84.7853C8.05475 84.6769 8.19173 84.6198 8.34013 84.6198H20.6291C20.7889 84.5913 20.9545 84.6369 21.0743 84.7454C21.1999 84.8481 21.2741 85.0022 21.2741 85.1677C21.2741 85.3276 21.1999 85.4874 21.0743 85.5901C20.9545 85.6986 20.7889 85.7385 20.6291 85.7157H8.32304C8.03193 85.7043 7.79789 85.4645 7.79789 85.1735ZM43.289 82.4851C43.2833 82.7819 43.0435 83.016 42.7524 83.0274H8.32365C8.05539 82.9817 7.86131 82.7477 7.86131 82.4794C7.86131 82.2055 8.05537 81.9771 8.32365 81.9315H42.7364C43.0389 81.9372 43.2786 82.1826 43.2786 82.4851H43.289ZM7.79789 79.7853C7.79789 79.4828 8.03762 79.243 8.34013 79.243H20.6291C20.7889 79.2145 20.9545 79.2602 21.0743 79.3686C21.1999 79.4714 21.2741 79.6255 21.2741 79.791C21.2741 79.9508 21.1999 80.1049 21.0743 80.2134C20.9545 80.3161 20.7889 80.3618 20.6291 80.3389H8.32304C8.18034 80.3332 8.04335 80.2761 7.94632 80.1677C7.84929 80.0649 7.79218 79.928 7.79789 79.7853Z" fill="white"/>
</svg>
