<svg width="111" height="94" viewBox="0 0 111 94" fill="none" xmlns="http://www.w3.org/2000/svg">
<path d="M59.7438 70.2412C59.9365 70.4051 59.9655 70.6941 59.8016 70.8916C59.7149 71.0024 59.5848 71.0651 59.4451 71.0651C59.3391 71.0651 59.2331 71.0265 59.1513 70.9543L58.2118 70.1786C58.0143 70.0196 57.9854 69.7257 58.1444 69.5282C58.3033 69.3307 58.5972 69.3018 58.7947 69.4608L59.7438 70.2412ZM58.3371 66.6135C58.2937 66.4979 58.207 66.4064 58.0962 66.3534C57.9854 66.3004 57.8601 66.3004 57.7445 66.3437C55.9379 66.8689 54.8924 68.7477 55.4032 70.5593C55.4513 70.7568 55.6296 70.8869 55.8319 70.882H55.9668C56.0825 70.8483 56.1836 70.7664 56.2415 70.6604C56.2993 70.5544 56.3089 70.4292 56.2752 70.3136C56.0873 69.6632 56.1788 68.9695 56.5161 68.3865C56.8581 67.8035 57.4218 67.3844 58.077 67.2302C58.1974 67.1869 58.2938 67.0953 58.3419 66.9797C58.3901 66.8593 58.3901 66.7292 58.3371 66.6135ZM64.417 63.7278C64.2195 63.6025 63.9594 63.6459 63.81 63.8289C63.6607 64.0072 63.6655 64.2722 63.8245 64.4408L64.7736 65.2164V65.2213C64.8506 65.2887 64.9518 65.3272 65.0578 65.3321C65.2505 65.3272 65.4191 65.2068 65.4866 65.0286C65.554 64.8503 65.5059 64.648 65.3661 64.5179L64.417 63.7278ZM62.7501 67.3315V67.3266C62.6152 67.5434 62.673 67.8277 62.885 67.9722L66.5994 70.3136C67.5051 70.9013 68.0496 71.9083 68.0447 72.9922C68.0447 73.2476 68.2519 73.4596 68.5121 73.4596C68.7722 73.4596 68.9794 73.2476 68.9794 72.9922C68.9842 71.5999 68.276 70.2991 67.1053 69.5475L63.4053 67.1532V67.158C63.2945 67.0905 63.1645 67.0713 63.0392 67.1098C62.9139 67.1435 62.8128 67.2254 62.7501 67.341L62.7501 67.3315ZM68.3001 79.9484V79.9436C68.1941 80.1749 68.2952 80.4447 68.5217 80.5507C68.9408 80.7241 69.3889 80.8156 69.8417 80.8204C70.2079 80.8204 70.5692 80.7482 70.9016 80.6133C71.711 80.2279 72.3132 79.5197 72.554 78.6621C72.6408 78.4261 72.5155 78.1611 72.2794 78.0792C72.0386 77.9925 71.7784 78.1177 71.6917 78.3538C71.523 78.9608 71.1087 79.4715 70.5451 79.7606C70.0151 79.9533 69.437 79.9533 68.9071 79.7606C68.6854 79.6497 68.4157 79.7413 68.3 79.9581L68.3001 79.9484ZM52.4407 35.7803C52.6285 33.728 52.5756 31.6563 52.2817 29.6137L43.6483 35.9297L47.4977 52.7289V52.7241C47.5507 52.9794 47.3917 53.2251 47.1364 53.2829H47.04C46.8232 53.2829 46.6353 53.1336 46.5823 52.9216L42.6367 35.7808C42.6029 35.6025 42.6752 35.4194 42.8197 35.3134L52.1179 28.5301H52.1228C51.7133 26.2369 51.0629 23.9966 50.1861 21.8431C50.1379 21.7323 50.1379 21.607 50.1861 21.4914C50.2342 21.3806 50.3258 21.2939 50.4366 21.2457C50.6726 21.1494 50.9376 21.265 51.034 21.5011C52.2239 24.3772 52.9997 27.4076 53.3417 30.5006L57.533 31.2425C58.7664 25.0758 59.9034 15.2092 57.7691 14.188V14.1831C57.5138 14.0145 57.2054 13.9567 56.9067 14.0242C56.7622 14.1157 56.6707 14.265 56.661 14.4337C56.6369 14.5541 56.5647 14.6553 56.4635 14.7227C56.3623 14.7902 56.2371 14.8143 56.1166 14.7902C55.9962 14.7709 55.8854 14.6986 55.8179 14.5975C55.7505 14.4915 55.7312 14.3662 55.7601 14.2458C55.8227 13.7929 56.0973 13.3979 56.4972 13.1859C57.0561 12.9739 57.6824 13.0365 58.1882 13.3593C59.4216 14.0145 59.8889 16.4571 59.8793 19.367C60.3177 19.5742 60.7802 19.7283 61.2619 19.8199C61.7293 19.8873 62.2062 19.8873 62.6783 19.8199C63.6659 17.0689 64.8993 14.8865 66.3783 14.7516C67.4623 14.6167 67.944 15.0118 68.156 15.3683C68.5029 16.2114 68.3246 17.1749 67.6983 17.8349C66.6674 19.2803 65.1402 20.292 63.4057 20.6726C62.2688 24.3003 61.4208 28.0099 60.8668 31.7726L62.1001 31.9942C62.2158 32.0135 62.3218 32.0857 62.394 32.1821C62.4615 32.2833 62.4904 32.4037 62.4663 32.5241C62.4326 32.7458 62.2398 32.9095 62.0134 32.9095H61.9411L53.4041 31.4786C53.4957 32.7554 53.4957 34.0368 53.4041 35.3136L59.8791 36.4602C59.9996 36.4794 60.1056 36.5469 60.173 36.6481C60.2405 36.7492 60.2694 36.8697 60.2501 36.9901C60.2067 37.2117 60.014 37.3707 59.7924 37.3707H59.7202L53.3319 36.2337L53.2066 37.4671L61.8399 38.9847L62.2109 37.5393C62.3843 36.8504 62.5819 36.1807 62.8035 35.5159L57.1523 34.5476C57.0319 34.5283 56.9211 34.4609 56.8488 34.3645C56.7766 34.2633 56.7477 34.1381 56.7718 34.0176C56.791 33.8924 56.8585 33.7864 56.9645 33.7141C57.0656 33.6418 57.1909 33.6129 57.3113 33.637L63.0733 34.6584C64.3067 31.1029 66.3012 27.8654 68.9172 25.1627C71.8946 22.113 72.8244 17.6134 71.2972 13.6339C69.77 9.65442 66.0652 6.93245 61.816 6.66272C57.8559 6.47002 54.098 8.40197 51.9493 11.731C51.8867 11.837 51.7855 11.9141 51.6651 11.943C51.5446 11.9671 51.4193 11.9478 51.3182 11.8803C51.1014 11.7406 51.0388 11.4564 51.1688 11.2396C54.2137 6.55674 60.1153 4.64409 65.3275 6.64825C70.5355 8.65242 73.638 14.0242 72.766 19.5353C72.3516 21.9009 71.2243 24.0784 69.5333 25.7791C66.3392 29.1273 64.0892 33.2658 63.0101 37.7656L62.5283 39.6156C62.4849 39.8228 62.297 39.9721 62.0851 39.9721H62.0128L52.6279 38.2474C52.387 38.2089 52.2184 37.9921 52.2425 37.756L52.4407 35.7803ZM63.7382 19.6508C65.015 19.2413 66.123 18.432 66.8938 17.3431C67.3756 16.6542 67.4479 16.1098 67.3274 15.8978C67.2022 15.6858 67.0432 15.7003 66.7493 15.7003H66.4554C65.5015 15.8496 64.5766 17.4298 63.7383 19.6749L63.7382 19.6508ZM58.4483 31.406L59.9177 31.6661L59.9129 31.6613C60.4669 27.9902 61.2908 24.3673 62.3796 20.8214C61.9701 20.8311 61.5557 20.7973 61.1462 20.7203C60.7271 20.6432 60.3128 20.5179 59.9129 20.3493C59.6961 24.0733 59.2047 27.7781 58.4483 31.4252L58.4483 31.406ZM15.1559 30.6785V82.4784L34.0025 82.4736C33.6556 79.2073 31.5984 60.8274 29.2811 50.185C26.5302 37.5285 26.9494 21.8184 36.3584 15.4396C43.9704 10.3328 53.5387 14.3797 57.325 16.3646V16.3694C57.8646 16.644 58.2645 17.1354 58.4234 17.7232C58.6017 18.3158 58.5246 18.9565 58.2115 19.4865C57.5803 20.5608 56.2025 20.9318 55.1185 20.3152C51.8618 18.4025 47.9209 18.0605 44.3847 19.3902C45.3338 19.9153 46.119 20.6909 46.6538 21.6352C47.2945 22.5939 47.4198 23.8031 47.0007 24.8775C46.2443 26.1542 45.0013 27.0695 43.5608 27.4164C43.503 28.0861 43.2284 28.7172 42.7851 29.2182C42.1106 29.8927 41.1808 30.2444 40.2318 30.1914H39.7982C39.7982 31.5404 39.1333 32.7978 38.0204 33.559C37.4712 33.93 36.8256 34.1275 36.1608 34.1275C35.3274 34.1275 34.5324 33.7999 33.9398 33.2169C33.4388 32.793 33.169 32.1522 33.2268 31.5019C33.4822 30.5383 34.1181 29.7193 34.9901 29.2328C35.2069 29.1027 35.4863 29.175 35.6164 29.3918C35.7465 29.6086 35.6742 29.8928 35.4574 30.0181C35.125 30.2301 34.2241 30.8949 34.1518 31.608V31.6128C34.1277 31.9741 34.2915 32.3258 34.5806 32.5474C35.3755 33.3279 36.6088 33.4242 37.5194 32.7835C38.5552 32.1186 39.3694 30.6011 38.5696 28.3175H38.5648C38.0204 26.6505 36.4065 25.5665 34.6576 25.6918C34.5324 25.6918 34.4167 25.6436 34.33 25.5521C34.2433 25.4654 34.1951 25.3449 34.1999 25.2245C34.2048 24.9692 34.4119 24.7668 34.6673 24.7668C36.816 24.6368 38.7863 25.9664 39.4657 28.0091C39.6006 28.4138 39.6969 28.8233 39.7595 29.2425C40.6075 29.4111 41.4842 29.175 42.1299 28.6017C42.8044 27.59 42.9393 26.3037 42.4864 25.1716C41.9564 22.9892 37.2207 22.0882 35.443 21.9293C35.1924 21.91 35.0045 21.6884 35.0238 21.4379C35.0479 21.1825 35.2647 20.9946 35.52 21.0187C35.8139 21.0187 42.5877 21.6836 43.3873 24.9548V24.95C43.4982 25.4414 43.5704 25.9424 43.609 26.4434C44.6785 26.1495 45.5987 25.4558 46.1768 24.5067C46.4755 23.7022 46.3598 22.8061 45.8684 22.1027C43.8208 18.4027 38.0348 19.2554 37.9771 19.265H37.9723C37.7217 19.3036 37.4857 19.1301 37.4471 18.8796C37.4134 18.6243 37.5868 18.3882 37.8374 18.3545C39.6777 18.1184 41.5422 18.3015 43.3007 18.8844C47.2608 17.0152 51.8906 17.2561 55.634 19.5252C55.9423 19.7083 56.3085 19.7613 56.6505 19.6745C56.9974 19.5878 57.2913 19.3662 57.4743 19.0579C57.6526 18.7447 57.7008 18.369 57.6044 18.0221C57.5033 17.6752 57.272 17.3813 56.954 17.2079C53.3407 15.3097 44.1533 11.4122 36.9605 16.2347C27.9321 22.305 27.5852 37.6589 30.2735 50.0169C32.6148 60.823 34.7009 79.5305 35.0238 82.5029L53.6101 82.4981C53.0127 82.4354 52.4346 82.2668 51.895 81.9922C51.8035 82.0596 51.6927 82.103 51.5771 82.1175C51.3555 82.1175 45.9789 81.9344 41.9465 73.0891C38.3187 65.1207 43.4159 60.3216 44.6107 59.3485C44.4035 57.2673 45.7573 55.3546 47.7904 54.8585C48.0987 53.7311 48.7443 52.7194 49.6404 51.963C51.5386 50.1274 56.5344 51.3848 57.498 51.6402C60.8415 51.0476 63.2697 51.5679 64.7246 53.1819C66.9552 55.6485 66.0833 59.8544 65.8086 60.9384L75.232 71.3495C77.6987 74.1196 78.19 78.128 76.4654 81.4137L75.8872 82.5121H95.8425V30.7122H70.7664C70.6412 30.7122 70.5207 30.6592 70.434 30.5676C70.3425 30.4809 70.2943 30.3557 70.2991 30.2304C70.2991 30.1051 70.3473 29.9895 70.4388 29.9028C70.5255 29.8161 70.646 29.7727 70.7664 29.7727H96.31C96.4304 29.7727 96.546 29.8209 96.6328 29.9076C96.7195 29.9943 96.7676 30.11 96.7676 30.2304V82.98C96.758 83.2305 96.5605 83.4281 96.31 83.4377H14.6881C14.4375 83.4281 14.24 83.2305 14.2304 82.98V30.2304C14.2304 29.9799 14.4375 29.7727 14.6881 29.7727H23.013C23.1383 29.7727 23.2539 29.8161 23.3455 29.9028C23.4322 29.9895 23.4804 30.1051 23.4804 30.2304C23.4804 30.4906 23.2732 30.6977 23.013 30.6977L15.1559 30.6785ZM65.1207 61.5118V61.507C64.6774 61.4973 64.2342 61.4492 63.8006 61.3576C63.8006 61.3576 63.8006 61.4203 63.6898 61.4299V61.4347C63.0394 61.5937 62.4806 62.008 62.1433 62.591C61.8061 63.1691 61.7194 63.858 61.9025 64.5036C61.9747 64.7493 61.835 65.0095 61.5941 65.0866H61.4544C61.2521 65.0866 61.069 64.9517 61.0112 64.7493C60.5969 63.304 61.2039 61.7575 62.495 60.9771C61.517 60.6061 60.6016 60.1002 59.7682 59.4739C58.5349 62.8896 53.6738 64.6529 51.5059 65.2695C52.8693 66.3969 53.5485 68.1553 53.2932 69.909L57.4509 75.4734L57.4461 75.4686C57.5569 75.6276 57.5569 75.8395 57.4461 75.9985C57.3401 76.1575 57.1426 76.2346 56.9547 76.1961C56.8054 76.1961 53.2547 75.3192 51.1927 74.6062C50.5279 74.3701 49.9594 74.9386 49.6655 75.4926C48.9524 76.8223 49.2222 78.9083 51.4047 80.5367C55.018 83.2394 57.7448 79.6599 57.8556 79.5154C57.9424 79.4094 58.0773 79.3467 58.2122 79.3467C58.3519 79.3467 58.4819 79.4094 58.5687 79.5154L61.2183 82.4638H74.8763L75.6664 80.9462C77.1984 77.9881 76.7407 74.3941 74.5198 71.9178L65.1207 61.5118ZM50.3207 80.864V80.8592C48.5526 79.5102 47.9407 77.1207 48.8417 75.0876C49.2512 74.0277 50.3978 73.4544 51.4914 73.7531C52.7247 74.1963 54.6614 74.6926 55.9043 74.9864L52.4019 70.2988C52.3248 70.1928 52.2959 70.0483 52.3297 69.9182C52.6814 68.1164 51.7804 66.3049 50.1329 65.4908C49.9642 65.3992 49.8679 65.2162 49.8871 65.0235C49.916 64.8307 50.0558 64.6718 50.2437 64.6284C50.3304 64.6284 58.2747 62.8411 59.0263 58.5725C59.0504 58.4087 59.166 58.269 59.325 58.216C59.484 58.163 59.6623 58.2015 59.7924 58.3123C61.2281 59.5697 63.025 60.3454 64.9233 60.5333C65.1834 59.4349 65.8627 55.7734 64.0127 53.726C62.7794 52.3577 60.597 51.9386 57.5377 52.4926H57.5329C57.4655 52.5023 57.3932 52.5023 57.3257 52.4926C55.8226 52.059 51.6168 51.2593 50.2726 52.5553C48.6442 54.1354 48.6586 55.1182 48.6586 55.1182H48.6538C48.6586 55.3399 48.5189 55.5326 48.3118 55.6C48.1769 55.6 44.9345 56.5105 45.5368 59.3C45.5801 59.4831 45.5079 59.6758 45.3489 59.7818C45.0887 59.9649 39.0232 64.3585 42.7715 72.5579C45.4115 78.4547 48.6202 80.3144 50.3449 80.9213L50.3207 80.864ZM54.6614 82.4539H59.9657L58.2265 80.5172V80.5124C57.3207 81.5193 56.1115 82.1986 54.7866 82.4491L54.6614 82.4539ZM111 86.5056C110.995 89.1409 109.733 91.6124 107.594 93.154L107.445 93.2648H107.449C107.367 93.3227 107.276 93.3516 107.175 93.3516H3.82523C3.72406 93.3516 3.63252 93.3227 3.55062 93.2648L3.40127 93.154H3.40609C1.267 91.6124 0.00481 89.1409 0 86.5056C0 86.2503 0.211985 86.0383 0.467322 86.0383H12.3333C11.3409 85.2579 10.758 84.0678 10.7532 82.8056V30.4038C10.7532 28.1058 12.6128 26.2413 14.9109 26.2365H25.2834C25.4087 26.2365 25.5243 26.2847 25.611 26.3714C25.6978 26.463 25.7411 26.5786 25.7411 26.7038C25.7411 26.8243 25.6978 26.9447 25.611 27.0314C25.5243 27.1181 25.4039 27.1615 25.2834 27.1615H14.8628C14.0004 27.1615 13.1766 27.5036 12.5743 28.1106C11.9673 28.7176 11.6252 29.5463 11.6301 30.4039V82.8057C11.6301 84.593 13.0754 86.0384 14.8628 86.0384H96.1998C97.0573 86.0384 97.8764 85.6963 98.4834 85.0941C99.0904 84.4871 99.4325 83.6632 99.4325 82.8056V30.4038C99.4373 29.5415 99.1001 28.7128 98.493 28.101C97.886 27.4891 97.0621 27.147 96.1998 27.147H74.2933C74.0428 27.147 73.8405 26.9447 73.8405 26.6894C73.8405 26.4389 74.0428 26.2269 74.2933 26.222H96.1998C98.4979 26.2269 100.357 28.0913 100.357 30.3894V82.806C100.329 84.0875 99.7023 85.2822 98.6665 86.0387H110.479C110.614 86.0242 110.744 86.0676 110.846 86.1591C110.947 86.2458 111 86.3756 111 86.5056ZM110.061 86.9633H0.939019C1.07873 89.1361 2.18197 91.1306 3.94527 92.4026H107.03C108.803 91.1356 109.916 89.141 110.061 86.9633ZM93.4106 3.8096C93.4346 3.65544 93.3768 3.49645 93.2516 3.39047L89.884 0.519145C89.7153 0.384243 89.4744 0.384243 89.3058 0.519145L74.9104 11.2481C74.814 11.3204 74.7514 11.4312 74.737 11.5517C74.7177 11.6721 74.7514 11.7925 74.8285 11.8889C74.9104 12.0093 75.0501 12.0768 75.1946 12.0768C75.2958 12.0768 75.3922 12.0479 75.4693 11.9901L89.5662 1.45852L92.1052 3.63128L79.006 9.5715C78.8807 9.61486 78.7795 9.70641 78.7265 9.82684C78.6735 9.94729 78.6735 10.087 78.7314 10.2074C78.7843 10.3279 78.8855 10.4194 79.0108 10.4628C79.136 10.5013 79.2757 10.4869 79.3914 10.4242L93.1554 4.17087C93.2951 4.0986 93.3913 3.96859 93.4106 3.8096ZM77.7004 3.42901L75.2337 5.89567C75.147 5.98239 75.094 6.09801 75.094 6.22327C75.094 6.34853 75.147 6.46415 75.2337 6.55087C75.4168 6.72912 75.7058 6.72912 75.8889 6.55087L78.7122 3.76144C78.8856 3.58319 78.8856 3.29894 78.7122 3.12069L76.6887 0.803379C76.5876 0.682937 76.4382 0.625126 76.284 0.64439C76.1251 0.663661 75.9902 0.764832 75.9227 0.914182L72.5551 8.31418C72.5021 8.42498 72.4973 8.55506 72.5358 8.67068C72.5792 8.78631 72.6659 8.87785 72.7815 8.93084C72.8442 8.9453 72.9116 8.9453 72.9791 8.93084C73.1573 8.93084 73.3211 8.82485 73.3982 8.66105L76.4671 1.97405L77.7004 3.42901ZM79.3528 16.1336C79.3432 16.254 79.3817 16.3793 79.4636 16.4708C79.5455 16.5623 79.6611 16.6201 79.7864 16.625L88.2077 17.2416C88.333 17.2416 88.4534 17.1935 88.5401 17.1067C88.6317 17.0056 88.675 16.8707 88.6654 16.7358L88.4052 13.0358C88.3908 12.9009 88.3185 12.7804 88.2077 12.7034C88.1065 12.6215 87.9668 12.5926 87.8367 12.6311L77.339 15.0978H77.3438C77.2089 15.1122 77.0836 15.1797 77.0066 15.2905C76.9247 15.4061 76.9006 15.5458 76.9343 15.6759C76.9632 15.806 77.0547 15.9216 77.1752 15.9794C77.2956 16.042 77.4401 16.0468 77.5654 15.9987L87.567 13.6765L87.7645 16.2781L79.8586 15.7096V15.7145C79.6033 15.6904 79.3769 15.8782 79.3528 16.1336Z" fill="white"/>
</svg>
