<svg width="115" height="88" viewBox="0 0 115 88" fill="none" xmlns="http://www.w3.org/2000/svg">
<path d="M63.5169 30.613C63.4023 30.8372 63.487 31.1162 63.7063 31.2407L72.7492 36.4423C72.8239 36.4572 72.9036 36.4572 72.9784 36.4423C73.1378 36.4423 73.2823 36.3676 73.372 36.238L74.5578 34.5041H74.5628C77.3628 30.2791 81.2292 26.8661 85.7731 24.6042C90.0779 22.5764 92.9229 18.3363 93.167 13.5832C93.4111 8.82505 91.0196 4.32106 86.939 1.85976C82.8635 -0.601543 77.7616 -0.62144 73.6664 1.80994C69.5709 4.23629 67.1444 8.72548 67.3537 13.4835C67.6278 18.695 66.6363 23.8918 64.459 28.635L63.5169 30.613ZM65.3305 29.0435H65.3256C67.5775 24.1508 68.599 18.7848 68.3099 13.4086C68.2203 10.768 69.0124 8.17209 70.5669 6.03476C74.3335 0.977723 81.3787 -0.287811 86.6699 3.14005C91.9611 6.57289 93.6801 13.5183 90.6059 19.0186C89.3952 21.126 87.5667 22.8102 85.3644 23.8414C81.6576 25.6699 78.3891 28.2807 75.7834 31.4943L70.1982 28.2259C70.0885 28.1611 69.959 28.1362 69.8344 28.1711C69.7149 28.201 69.6102 28.2807 69.5455 28.3953C69.4857 28.5049 69.4658 28.6344 69.5006 28.754C69.5355 28.8786 69.6152 28.9832 69.7248 29.043L75.1456 32.1818C74.6623 32.7947 74.204 33.4573 73.7556 34.0702L72.814 35.4353L64.5233 30.6274L65.3305 29.0435ZM71.3094 26.9658C71.5336 27.0954 71.8225 27.0206 71.9571 26.8014C74.2041 23.1892 76.1771 19.4175 77.8512 15.5113C78.2049 15.8302 78.5886 16.1142 78.9971 16.3534C79.4007 16.5875 79.8292 16.7819 80.2726 16.9263C77.7316 20.3293 75.4397 23.9166 73.4269 27.6534C73.3023 27.8876 73.387 28.1766 73.6162 28.3061C73.6909 28.3211 73.7706 28.3211 73.8454 28.3061C74.0198 28.3011 74.1792 28.2114 74.2689 28.062C76.3167 24.2305 78.6733 20.5735 81.3089 17.1207C83.2271 17.3898 85.1803 16.9364 86.7796 15.8453C87.801 15.1079 88.2992 14.2658 88.1547 13.5235C88.065 13.0751 87.7212 12.5021 86.5753 12.248C85.0308 11.8893 82.9681 13.6531 80.9252 16.0745C80.4121 15.9449 79.9138 15.7406 79.4605 15.4716C78.9872 15.2075 78.5587 14.8787 78.185 14.4901C79.2961 11.5057 79.7794 8.84005 78.7082 7.67923C77.8911 6.8123 77.2035 6.79735 76.7701 6.94185C76.0426 7.18599 75.4946 8.03797 75.4198 9.28848H75.4148C75.2504 11.2615 75.8583 13.2245 77.1138 14.7592C75.4347 18.7649 73.4468 22.6264 71.1549 26.3133C71.0901 26.4229 71.0702 26.5524 71.0951 26.672C71.125 26.7966 71.1998 26.9011 71.3094 26.9658ZM86.3714 13.2046C86.8697 13.3192 87.1885 13.5235 87.2284 13.7427C87.2683 13.962 86.9992 14.5598 86.2319 15.1079V15.1029C85.0013 15.9399 83.5315 16.3535 82.0468 16.2887C83.7707 14.261 85.3401 12.9754 86.3714 13.2046ZM76.3968 9.37819C76.4865 8.44649 76.8153 7.9383 77.0993 7.83371H77.2139C77.5377 7.8935 77.8267 8.06787 78.031 8.33195C78.7434 9.10919 78.4146 11.127 77.5078 13.6382C76.6758 12.4026 76.2822 10.9228 76.3968 9.43805L76.3968 9.37819ZM77.6722 87.4021V87.3971C77.742 87.6462 77.6075 87.9053 77.3683 88H77.2139C77.0096 88 76.8253 87.8655 76.7655 87.6662L65.1716 51.9679C65.1118 51.8384 65.1118 51.6839 65.1716 51.5594C65.2563 51.4348 65.3958 51.3551 65.5453 51.3402L83.9403 50.0647H83.9353C84.4834 50.0198 84.9916 49.7657 85.3503 49.3522L93.7555 39.507V39.502C94.1491 39.0636 94.3335 38.4756 94.2637 37.8878C94.194 37.3048 93.8751 36.7767 93.3868 36.4429C92.5498 35.8799 91.4287 36.0094 90.7462 36.7468L88.4992 39.1682L84.3936 48.3059C84.3189 48.4753 84.1495 48.5849 83.9602 48.5849C83.8954 48.5998 83.8256 48.5998 83.7559 48.5849C83.5217 48.4703 83.4171 48.1863 83.5267 47.9472L88.2101 37.539C88.4742 36.9461 88.4742 36.2685 88.2101 35.6756C87.9461 35.0678 87.418 34.6094 86.7802 34.43C85.7738 34.1709 84.7175 34.6343 84.2292 35.551L80.4028 42.8203L78.2355 49.5415C78.1707 49.7407 77.9814 49.8753 77.7771 49.8753H77.6227C77.3735 49.7906 77.239 49.5215 77.3137 49.2724L81.3843 36.7468C81.5388 36.2585 81.469 35.7254 81.195 35.2969C80.8462 34.7638 80.2334 34.4698 79.6056 34.5296C78.9729 34.5844 78.4248 34.988 78.1856 35.5759L73.7612 46.3428H73.7562C73.6865 46.5022 73.537 46.6168 73.3626 46.6318L66.487 47.2695C66.3575 47.2845 66.2329 47.2496 66.1333 47.1649C66.0336 47.0852 65.9738 46.9656 65.9639 46.8361C65.6051 43.1392 60.6826 41.3256 60.6327 41.3007C60.5131 41.2609 60.4185 41.1712 60.3637 41.0566C60.3089 40.942 60.3089 40.8075 60.3537 40.6879C60.3936 40.5733 60.4832 40.4736 60.5978 40.4238C60.7124 40.369 60.847 40.364 60.9665 40.4089C61.1858 40.4836 66.0685 42.2972 66.8457 46.2781L72.994 45.7052L74.6032 41.7642L62.7901 39.9157V39.9108C62.6008 39.8759 62.4513 39.7364 62.4065 39.557C62.3566 39.3627 62.4264 39.1634 62.5858 39.0438L67.8173 35.2174H67.8124C67.917 35.1227 68.0515 35.0729 68.196 35.0829C68.3355 35.0978 68.4601 35.1676 68.5448 35.2822C68.6245 35.3967 68.6544 35.5412 68.6245 35.6807C68.5896 35.8153 68.4999 35.9299 68.3754 35.9946L64.0756 39.1435L74.982 40.8524L77.2888 35.2024V35.2074C77.6725 34.2956 78.5294 33.6679 79.516 33.5782C80.4975 33.4885 81.4541 33.9469 81.9972 34.774C82.4356 35.4466 82.5452 36.2787 82.2911 37.0409L82.2164 37.31L83.3374 35.1675C83.8954 34.0864 85.0165 33.4137 86.2371 33.4386C87.4528 33.4635 88.5489 34.176 89.062 35.2821C89.2962 35.8002 89.3909 36.3732 89.3311 36.9412L90.0436 36.164C91.045 35.1027 92.6593 34.9184 93.87 35.7156C94.5875 36.1939 95.0658 36.9512 95.1803 37.8031C95.2999 38.6551 95.0458 39.5171 94.4828 40.1698L86.0776 50.0049V50C85.5545 50.6178 84.8071 50.9914 84 51.0462L66.2184 52.3217L77.6722 87.4021ZM50.0351 45.9693C50.2792 45.9643 50.4785 45.78 50.5034 45.5358C51.4999 36.3035 62.4561 32.4366 62.5557 32.3971H62.5607C62.6803 32.3572 62.7799 32.2725 62.8347 32.1579C62.8895 32.0383 62.8945 31.9088 62.8497 31.7892C62.8148 31.6647 62.7301 31.565 62.6155 31.5102C62.5009 31.4554 62.3714 31.4504 62.2518 31.4953C62.1372 31.4953 50.7724 35.541 49.5966 45.2067C48.7047 43.5078 47.7581 41.7689 46.7516 39.9902C46.7516 39.8507 39.8909 25.2329 37.9777 19.5825C37.6389 18.5661 36.5776 17.9732 35.5363 18.2173C34.49 18.4615 33.8024 19.4629 33.9469 20.5242L34.5597 24.9635H34.3455C32.5767 24.4304 30.6983 24.3856 28.9097 24.834C28.8101 24.6297 28.6905 24.4304 28.556 24.251C27.9432 23.414 27.0264 22.866 26.005 22.7165L16.9621 21.3513L7.30629 19.8616C6.29487 19.7021 5.26348 19.9562 4.4464 20.5641C3.62432 21.167 3.07628 22.0787 2.93177 23.0902L0.0470027 41.8385C-0.112433 42.8499 0.136684 43.8863 0.749514 44.7084C1.35736 45.5354 2.2741 46.0835 3.28556 46.228L22.0097 49.058C22.199 49.068 22.3833 49.068 22.5727 49.058C23.7236 49.068 24.8247 48.5548 25.5571 47.668C27.4055 50.8169 32.3181 57.8719 40.2404 59.8748C41.1323 61.0107 47.993 70.0786 47.8933 81.4687C47.8933 81.7328 48.1026 81.947 48.3617 81.952C48.6307 81.952 48.8499 81.7378 48.8499 81.4687C48.9496 68.9679 40.943 59.237 40.8633 59.1324C40.7935 59.0577 40.7038 59.0079 40.6091 58.983C30.9035 56.6861 25.6375 45.834 25.5827 45.7294C25.5528 45.6597 25.503 45.5949 25.4432 45.55L20.2516 41.5443C19.4095 40.9414 19.1953 39.7855 19.7683 38.9185C20.3362 38.0566 21.4823 37.7975 22.3691 38.3306L30.0868 42.8197C31.3673 43.5421 32.9815 43.2681 33.953 42.162C34.9246 41.056 34.9894 39.4168 34.1025 38.2409L33.121 36.9655C31.9452 35.3562 30.1963 34.255 28.2383 33.8913L29.0156 28.6997C32.7723 28.6349 36.3347 30.3588 38.6165 33.3432C38.7062 33.4777 38.8557 33.5574 39.0151 33.5574C39.1098 33.5525 39.1995 33.5226 39.2842 33.4727C39.4984 33.3183 39.5532 33.0243 39.4087 32.8051C37.0023 29.5965 33.2206 27.7032 29.2048 27.7032L29.2945 27.0654C29.3742 26.617 29.3742 26.1537 29.2945 25.7003C30.9088 25.3266 32.5928 25.3814 34.1822 25.8547C37.4854 26.7217 39.9717 30.1645 39.9966 30.1893V30.1943C40.0863 30.3239 40.2358 30.3986 40.3902 30.3986C40.4899 30.3986 40.5845 30.3687 40.6593 30.3089C40.7639 30.2342 40.8336 30.1246 40.8536 30C40.8785 29.8754 40.8486 29.7459 40.7738 29.6463C39.3787 27.7629 37.5402 26.2583 35.4178 25.2668C35.5424 25.1671 35.6022 25.0077 35.5823 24.8482L34.9694 20.3592C34.8748 19.7762 35.2484 19.2182 35.8264 19.0837C36.3645 19.009 36.8777 19.3378 37.0371 19.8609C38.9752 25.5608 45.7862 40.2687 45.8758 40.4077C53.7928 54.234 59.2136 69.3459 61.8946 85.0497C61.9245 85.2888 62.1288 85.4732 62.368 85.4732C62.632 85.4333 62.8164 85.1892 62.7765 84.9251C60.4746 71.3476 56.1301 58.1948 49.8916 45.9182L50.0351 45.9693ZM32.353 37.4644L33.3345 38.7398H33.3395C33.9524 39.552 33.9125 40.6879 33.2399 41.4602C32.5673 42.2275 31.4463 42.4168 30.5593 41.9136L27.2959 40.0652L28.108 34.8336C29.802 35.1475 31.3167 36.0892 32.353 37.4644ZM28.3073 26.9665L26.3941 39.5818L22.8366 37.554H22.8416C21.9896 37.0956 20.9632 37.0956 20.1113 37.554C20.0565 37.4992 19.9917 37.4594 19.917 37.4394C19.7327 37.3747 19.5383 37.3298 19.344 37.2999L16.3746 36.8515L9.39921 35.7952L9.39423 35.7903C7.45613 35.5013 5.64252 36.8366 5.33857 38.7746L5.0496 40.653C5.02469 40.7776 5.05458 40.9072 5.1343 41.0068C5.20903 41.1114 5.31864 41.1812 5.44321 41.2011L16.8478 42.925H16.9226V42.9201C17.1617 42.9051 17.351 42.7108 17.366 42.4717C17.3809 42.2325 17.2215 42.0183 16.9873 41.9635L6.06599 40.3343L6.28522 38.8545C6.37491 38.1619 6.74361 37.5392 7.3066 37.1305C7.86463 36.717 8.57213 36.5526 9.25465 36.6721L16.23 37.7284L19.1995 38.1768H19.2045C18.7212 38.7647 18.487 39.5121 18.5418 40.2694C18.6116 41.0815 19.0251 41.8239 19.6778 42.3122L24.7797 46.1386C24.8794 46.308 24.974 46.4874 25.0587 46.6717C24.4409 47.6134 23.3298 48.1116 22.2138 47.9472L3.46542 45.2716C2.69813 45.1521 2.01557 44.7286 1.56711 44.0958C1.10873 43.478 0.924383 42.7007 1.04396 41.9385L3.874 23.2692C3.98362 22.5069 4.39217 21.8193 5.00998 21.3609C5.62779 20.9075 6.4051 20.7132 7.16235 20.8328L16.843 22.2976L25.8911 23.6876C26.6484 23.8022 27.326 24.2157 27.7744 24.8335C28.2278 25.4464 28.4221 26.2136 28.3125 26.966L28.3073 26.9665ZM15.8713 26.5181H15.8763C13.4699 26.1693 11.2328 27.8333 10.884 30.2399C10.5302 32.6414 12.1943 34.8785 14.6008 35.2323C14.8201 35.2423 15.0443 35.2423 15.2635 35.2323C17.5604 35.2223 19.4637 33.4487 19.633 31.1567C19.8074 28.8648 18.1832 26.8321 15.9162 26.4833L15.8713 26.5181ZM18.6166 31.3409C18.487 32.2427 17.9987 33.0599 17.2614 33.5979C16.529 34.141 15.6072 34.3652 14.7004 34.2257C12.9566 33.9218 11.721 32.3423 11.8555 30.5736C11.985 28.8049 13.4399 27.4247 15.2136 27.3849C15.388 27.3749 15.5623 27.3749 15.7367 27.3849C16.6485 27.5194 17.4656 28.0127 18.0086 28.755C18.5517 29.5024 18.771 30.4342 18.6166 31.3409ZM98.1456 49.9656C91.3944 49.9656 85.3065 54.0312 82.7198 60.269C80.1341 66.5069 81.5639 73.691 86.337 78.4651C91.1151 83.2432 98.2947 84.6682 104.533 82.0872C110.776 79.5014 114.842 73.4129 114.842 66.6615C114.837 57.4391 107.363 49.9707 98.1456 49.9656ZM113.182 71.3006L98.8726 66.403L98.6185 53.0997C98.5786 52.8655 98.3743 52.6961 98.1402 52.6961C97.901 52.6961 97.6967 52.8655 97.6619 53.0997L97.906 65.4708L91.0304 55.8798H91.0254C90.8759 55.6656 90.577 55.6158 90.3627 55.7653C90.1485 55.9197 90.0987 56.2137 90.2482 56.4329L97.7466 66.9158H97.7516C97.8114 67.0005 97.8961 67.0603 97.9907 67.0952L112.863 72.1971C109.983 79.7952 101.777 83.9455 93.9449 81.7633C86.1176 79.5761 81.2449 71.7786 82.7146 63.7815C84.1844 55.7848 91.5134 50.2346 99.6097 50.9769C107.706 51.7192 113.894 58.5153 113.884 66.6462C113.889 68.2257 113.649 69.7951 113.181 71.2997L113.182 71.3006Z" fill="white"/>
</svg>
