<svg xmlns="http://www.w3.org/2000/svg" width="151" height="50" viewBox="0 0 151 50" fill="none">
    <path d="M9.79639 11.5495V2.19155C9.79639 1.70416 9.90605 1.33861 10.1254 1.09492C10.3447 0.851222 10.6371 0.729374 10.9783 0.729374C11.3317 0.729374 11.6363 0.851222 11.8556 1.09492C12.0749 1.33861 12.1968 1.70416 12.1968 2.19155V11.5495C12.1968 12.0369 12.0871 12.4024 11.8556 12.6461C11.6363 12.8898 11.3439 13.0116 10.9783 13.0116C10.6128 13.0116 10.3447 12.8898 10.1254 12.6461C9.90605 12.4024 9.79639 12.0369 9.79639 11.5495Z" fill="white"/>
    <path d="M15.4625 5.25004V5.5181C15.8524 5.00634 16.2789 4.62861 16.7419 4.38492C17.205 4.14122 17.7289 4.01937 18.3381 4.01937C18.9474 4.01937 19.447 4.14122 19.8978 4.3971C20.3608 4.65298 20.702 5.00634 20.9213 5.46936C21.0675 5.73743 21.165 6.02986 21.2016 6.34667C21.2503 6.66347 21.2625 7.05339 21.2625 7.54078V11.6592C21.2625 12.0979 21.165 12.4391 20.9579 12.6584C20.7507 12.8899 20.4949 12.9996 20.1659 12.9996C19.8491 12.9996 19.5688 12.8899 19.3617 12.6462C19.1545 12.4147 19.057 12.0857 19.057 11.6471V7.96725C19.057 7.23616 18.9596 6.67566 18.7524 6.29793C18.5453 5.90801 18.1432 5.72524 17.5461 5.72524C17.1562 5.72524 16.7907 5.84709 16.4739 6.0786C16.1449 6.31011 15.9134 6.6391 15.7671 7.0412C15.6575 7.37019 15.6087 7.99162 15.6087 8.88111V11.6471C15.6087 12.0979 15.4991 12.4269 15.2919 12.6584C15.0848 12.8777 14.8167 12.9996 14.4877 12.9996C14.1588 12.9996 13.9029 12.8899 13.6957 12.6462C13.4886 12.4147 13.3911 12.0857 13.3911 11.6471V5.26222C13.3911 4.83575 13.4886 4.53113 13.6714 4.32399C13.8541 4.11685 14.11 4.00719 14.4268 4.00719C14.6218 4.00719 14.7924 4.05593 14.9508 4.14122C15.1092 4.2387 15.231 4.37273 15.3285 4.5555C15.426 4.75046 15.4625 4.98197 15.4625 5.25004Z" fill="white"/>
    <path d="M96.7896 26.6464V16.6915H97.7765V21.078H102.931V16.6915H103.93V26.6464H102.931V21.9797H97.7765V26.6464H96.7896Z" fill="white"/>
    <path d="M107.159 22.4671H112.898C112.764 21.6629 112.386 21.0293 111.777 20.5541C111.253 20.152 110.668 19.9448 110.01 19.9448C109.352 19.9448 108.779 20.152 108.243 20.5541C107.646 21.0171 107.281 21.6629 107.159 22.4671ZM113.861 23.3079H107.159C107.195 24.0268 107.5 24.6482 108.073 25.1843C108.645 25.7204 109.291 25.9763 110.01 25.9763C110.656 25.9641 111.216 25.7936 111.704 25.4524C112.155 25.1356 112.471 24.7213 112.642 24.2461H113.641C113.385 25.0015 112.922 25.6108 112.276 26.086C111.606 26.5856 110.851 26.8293 110.01 26.8293C108.974 26.8293 108.073 26.4637 107.317 25.7083C106.562 24.965 106.184 24.0511 106.184 22.9789C106.184 21.9066 106.562 21.0171 107.305 20.2617C108.048 19.494 108.95 19.1163 110.01 19.1041C110.753 19.0919 111.436 19.2869 112.057 19.7012C112.569 20.0423 112.983 20.4688 113.3 20.9927C113.714 21.6995 113.909 22.4671 113.861 23.3079Z" fill="white"/>
    <path d="M116.638 22.991C116.638 23.8196 116.919 24.5263 117.479 25.1112C118.04 25.6839 118.759 25.9763 119.648 25.9763C120.452 25.9763 121.147 25.6839 121.732 25.1112C122.304 24.5385 122.597 23.8196 122.597 22.9667C122.597 22.1137 122.317 21.4314 121.744 20.8343C121.183 20.2373 120.477 19.9448 119.648 19.9448C118.82 19.9448 118.113 20.2129 117.54 20.7612C116.943 21.3461 116.638 22.0894 116.638 22.991ZM123.486 19.2869V26.6465H122.548V25.3549C121.89 26.3297 120.927 26.8171 119.672 26.8171C118.527 26.8171 117.577 26.4393 116.833 25.6839C116.078 24.9284 115.7 24.0146 115.7 22.9423C115.7 21.87 116.066 21.0171 116.785 20.2738C117.552 19.4818 118.515 19.0919 119.672 19.0919C120.964 19.0919 121.914 19.5915 122.548 20.5663V19.2747L123.486 19.2869Z" fill="white"/>
    <path d="M126.837 16.6915H125.899V26.6464H126.837V16.6915Z" fill="white"/>
    <path d="M130.164 26.6464V20.1398H128.616V19.2868H130.164V16.6915H131.102V19.2868H132.869V20.1398H131.102V26.6464H130.164Z" fill="white"/>
    <path d="M134.55 26.6464V16.6915H135.489V20.2251C135.964 19.4696 136.719 19.0919 137.755 19.0919C138.705 19.0919 139.485 19.3965 140.094 19.9935C140.704 20.5906 141.008 21.4557 141.008 22.5889V26.6343H140.07V22.5889C140.07 21.407 139.656 20.6028 138.827 20.2007C138.486 20.0301 138.133 19.9448 137.767 19.9448C137.133 19.9448 136.597 20.1519 136.171 20.5784C135.708 21.0171 135.489 21.6872 135.489 22.6011V26.6464H134.55Z" fill="white"/>
    <path d="M97.7643 30.8381V34.9809H99.2021C99.7992 34.9809 100.201 34.9687 100.384 34.9565C100.664 34.92 100.932 34.8469 101.188 34.725C101.956 34.3717 102.346 33.7624 102.346 32.9095C102.346 32.0566 101.956 31.4473 101.188 31.094C100.932 30.9721 100.664 30.899 100.384 30.8625C100.201 30.8503 99.7992 30.8381 99.2021 30.8381H97.7643ZM96.7651 39.8914V29.9364H99.5311C100.664 29.9364 101.517 30.1314 102.102 30.5091C102.931 31.0574 103.345 31.8494 103.345 32.8973C103.345 33.9452 102.931 34.7494 102.102 35.2977C101.529 35.6876 100.676 35.8704 99.5311 35.8704H97.7521V39.8792H96.7651V39.8914Z" fill="white"/>
    <path d="M104.88 36.2359C104.88 37.0645 105.16 37.7712 105.721 38.3561C106.281 38.9287 107 39.2212 107.89 39.2212C108.694 39.2212 109.388 38.9287 109.973 38.3561C110.558 37.7834 110.838 37.0645 110.838 36.2115C110.838 35.3586 110.558 34.6762 109.986 34.0792C109.425 33.4821 108.718 33.1897 107.89 33.1897C107.061 33.1897 106.354 33.4578 105.782 34.0061C105.185 34.591 104.88 35.322 104.88 36.2359ZM111.728 32.5317V39.8913H110.79V38.5998C110.132 39.5745 109.169 40.0619 107.914 40.0619C106.769 40.0619 105.818 39.6842 105.075 38.9287C104.32 38.1733 103.942 37.2594 103.942 36.1872C103.942 35.1149 104.307 34.262 105.026 33.5187C105.794 32.7267 106.757 32.3368 107.914 32.3368C109.206 32.3368 110.156 32.8363 110.79 33.8111V32.5195L111.728 32.5317Z" fill="white"/>
    <path d="M114.165 39.8913V32.5317H115.103V33.5918C115.298 33.1288 115.603 32.7876 116.017 32.5926C116.31 32.4586 116.699 32.3733 117.199 32.3368V33.3359C116.492 33.3847 115.968 33.6283 115.615 34.0548C115.274 34.4813 115.091 34.993 115.091 35.5901V39.8913H114.165Z" fill="white"/>
    <path d="M119.478 39.8914V33.3847H117.93V32.5318H119.478V29.9364H120.428V32.5318H122.183V33.3847H120.428V39.8914H119.478Z" fill="white"/>
    <path d="M123.694 39.8913V32.5317H124.632V33.4699C125.107 32.7145 125.863 32.3368 126.898 32.3368C127.849 32.3368 128.629 32.6414 129.238 33.2384C129.847 33.8355 130.152 34.7006 130.152 35.8338V39.8792H129.214V35.8338C129.214 34.6519 128.799 33.8477 127.971 33.4456C127.63 33.275 127.276 33.1897 126.911 33.1897C126.277 33.1897 125.741 33.3968 125.314 33.8233C124.851 34.262 124.632 34.9321 124.632 35.846V39.8913H123.694Z" fill="white"/>
    <path d="M133.21 35.712H138.949C138.815 34.9078 138.437 34.2741 137.828 33.7989C137.304 33.3968 136.719 33.1897 136.061 33.1897C135.403 33.1897 134.831 33.3968 134.295 33.7989C133.71 34.262 133.332 34.8956 133.21 35.712ZM139.912 36.5527H133.21C133.247 37.2716 133.551 37.893 134.124 38.4292C134.697 38.9653 135.342 39.2212 136.061 39.2212C136.707 39.209 137.268 39.0384 137.755 38.6972C138.206 38.3804 138.523 37.9661 138.693 37.4909H139.692C139.437 38.2464 138.974 38.8556 138.328 39.3308C137.658 39.8304 136.902 40.0741 136.061 40.0741C135.026 40.0741 134.124 39.7086 133.369 38.9531C132.613 38.2098 132.235 37.296 132.235 36.2237C132.235 35.1515 132.613 34.262 133.356 33.5065C134.1 32.751 135.001 32.3611 136.061 32.3489C136.805 32.3368 137.487 32.5317 138.108 32.946C138.62 33.2872 139.034 33.7136 139.351 34.2376C139.766 34.9321 139.961 35.712 139.912 36.5527Z" fill="white"/>
    <path d="M142.032 39.8913V32.5317H142.97V33.5918C143.165 33.1288 143.47 32.7876 143.884 32.5926C144.176 32.4586 144.566 32.3733 145.066 32.3368V33.3359C144.359 33.3847 143.835 33.6283 143.482 34.0548C143.141 34.4813 142.958 34.993 142.958 35.5901V39.8913H142.032Z" fill="white"/>
    <path d="M146.418 37.7103H147.357C147.369 38.7094 147.82 39.2212 148.673 39.2212C149.111 39.2212 149.452 39.0994 149.684 38.8679C149.928 38.6242 150.037 38.3074 150.037 37.9053C150.037 37.4666 149.867 37.1254 149.513 36.8695C149.355 36.7599 149.05 36.6137 148.575 36.4431C147.978 36.2238 147.552 36.0166 147.32 35.8338C146.857 35.4805 146.626 34.9931 146.626 34.396C146.626 33.8355 146.808 33.3725 147.162 32.9826C147.552 32.5561 148.076 32.349 148.721 32.349C149.282 32.349 149.757 32.5439 150.147 32.9217C150.537 33.2994 150.732 33.7868 150.72 34.3595H149.781C149.757 33.9574 149.611 33.6528 149.367 33.4456C149.172 33.2872 148.941 33.2019 148.685 33.2019C148.331 33.2019 148.063 33.3116 147.868 33.5431C147.673 33.7746 147.576 34.0305 147.576 34.2986C147.576 34.8225 148.015 35.2368 148.892 35.517C149.501 35.712 149.964 35.9435 150.269 36.1872C150.756 36.5771 151 37.1132 151 37.7834C151 38.4536 150.805 38.9897 150.439 39.404C150.025 39.8426 149.44 40.062 148.697 40.062C148.1 40.062 147.588 39.8792 147.162 39.5137C146.65 39.075 146.406 38.4779 146.418 37.7103Z" fill="white"/>
    <path d="M32.3509 42.7182C32.3143 42.7548 32.29 42.8035 32.2534 42.8401C32.29 42.8035 32.3265 42.767 32.3509 42.7182Z" fill="white"/>
    <path d="M31.656 43.5834C31.6195 43.6321 31.5707 43.6809 31.5342 43.7296C31.5707 43.6687 31.6195 43.6199 31.656 43.5834Z" fill="white"/>
    <path d="M6.98193 17.4714L7.14034 3.54414C7.1647 1.60676 5.60505 0.0349197 3.66767 0.0349197C1.73029 0.0349197 0.207185 1.58239 0.195 3.48322L0.0244141 30.1192C0.499621 24.9772 3.11935 20.4566 6.98193 17.4714Z" fill="white"/>
    <path d="M29.0365 31.7641C29.0365 33.7624 28.5491 35.6145 27.5743 37.296C26.5995 38.9775 25.2592 40.3178 23.5777 41.2926C21.9449 42.243 20.1659 42.7304 18.2407 42.7548C20.1172 42.8401 21.6037 44.3876 21.6037 46.2762C21.6037 48.1649 20.2268 49.5783 18.4722 49.7732C20.3365 49.7367 22.1155 49.4321 23.8092 48.8594C23.8457 48.8472 23.8945 48.835 23.931 48.8228C24.1016 48.7619 24.26 48.701 24.4306 48.6401C24.455 48.6279 24.4672 48.6279 24.4915 48.6157C25.381 48.2745 26.2583 47.848 27.0991 47.3607C28.7928 46.3615 30.2793 45.143 31.5465 43.7174C31.5831 43.6687 31.6318 43.6199 31.6684 43.5712C31.8755 43.3275 32.0705 43.0838 32.2654 42.8401C32.302 42.8035 32.3263 42.7548 32.3629 42.7183C32.7894 42.1578 33.1793 41.5729 33.557 40.9515C34.6171 39.1725 35.3725 37.1864 35.7625 35.0784L28.9146 30.0582C28.9877 30.6187 29.0365 31.1792 29.0365 31.7641Z" fill="white"/>
    <path d="M47.2525 12.0369C49.1533 12.0369 50.6886 13.5722 50.6886 15.473L50.8349 3.53191C50.8592 1.59453 49.2996 0.022686 47.3622 0.022686C45.4492 0.022686 43.9017 1.55797 43.8895 3.47099L43.8164 15.473C43.8164 13.5844 45.3517 12.0369 47.2525 12.0369Z" fill="white"/>
    <path d="M77.2883 22.6986C75.6677 19.9448 73.4867 17.7638 70.7329 16.1432C67.9791 14.5226 64.9695 13.7184 61.6918 13.7184C57.5611 13.7184 53.8813 14.9612 50.6523 17.4591V30.9599C50.762 29.3149 51.2372 27.7675 52.0901 26.3175C53.0649 24.6603 54.4174 23.32 56.1233 22.2965C57.8292 21.273 59.6813 20.7612 61.6918 20.7612C63.7023 20.7612 65.5422 21.2486 67.2237 22.2234C68.9052 23.1982 70.2333 24.5385 71.2203 26.22C72.1951 27.9015 72.6825 29.7536 72.6825 31.7519C72.6825 33.7502 72.1951 35.6023 71.2203 37.2838C70.2455 38.9653 68.9052 40.3056 67.2237 41.2804C65.5422 42.2552 63.6901 42.7426 61.6918 42.7426C59.6935 42.7426 57.8414 42.243 56.1599 41.2439C54.4784 40.2447 53.138 38.9044 52.1389 37.2107C51.2616 35.7363 50.7742 34.1645 50.6645 32.483V46.0081C51.286 46.4955 51.9561 46.9463 52.6506 47.3484C55.4044 48.969 58.4141 49.7732 61.6918 49.7732C64.9695 49.7732 67.9791 48.969 70.7329 47.3484C73.4867 45.7279 75.6677 43.5468 77.2883 40.793C78.9089 38.0393 79.7131 35.0296 79.7131 31.7519C79.7131 28.462 78.9089 25.4524 77.2883 22.6986Z" fill="white"/>
    <path d="M47.2526 12.0369C45.3518 12.0369 43.8165 13.5722 43.8165 15.473V15.5095V28.9372L43.7312 28.8763L28.1469 16.8255C27.8057 16.594 27.4523 16.3625 27.0868 16.1553C26.0633 15.5583 25.0032 15.0709 23.9066 14.6932C23.8822 14.681 23.8456 14.681 23.8213 14.6688C21.9936 14.0474 20.0684 13.7427 18.0335 13.7427C13.8907 13.7427 10.2109 14.9978 6.96971 17.4957V17.4713C3.10713 20.4566 0.487393 24.9771 0.0121855 30.1191L0 31.691V31.7641C0 35.0418 0.804196 38.0514 2.42477 40.8052C4.04535 43.5589 6.22643 45.74 8.9802 47.3606C11.6243 48.9203 14.5121 49.7244 17.6436 49.7732C17.7654 49.7732 17.8995 49.7732 18.0213 49.7732C18.1675 49.7732 18.3137 49.7732 18.4478 49.761C20.2024 49.5539 21.5671 48.0673 21.5671 46.2518C21.5671 44.4363 20.0805 42.8157 18.2041 42.7304C18.1432 42.7304 18.0822 42.7304 18.0213 42.7304C17.9726 42.7304 17.9117 42.7304 17.8629 42.7304C15.9255 42.706 14.1344 42.2064 12.5016 41.2316C10.8201 40.2325 9.47977 38.8922 8.48062 37.1985C7.48147 35.517 6.98189 33.6893 6.98189 31.7397V31.6666C6.98189 29.7536 7.46928 27.9746 8.44406 26.3053C9.41885 24.6481 10.7714 23.3078 12.4772 22.2843C14.1831 21.2608 16.0352 20.749 18.0457 20.749C20.0562 20.749 21.8961 21.2364 23.5776 22.2112C25.2591 23.186 26.5872 24.5263 27.5742 26.2078C28.0981 27.0973 28.4759 28.0355 28.7074 29.0225C28.7927 29.3515 28.8536 29.6926 28.9023 30.046L29.0729 30.1679L35.7502 35.054L50.6888 46.0203V32.4951C50.6766 32.2515 50.6644 32.0078 50.6644 31.7641V31.691C50.6644 31.4473 50.6766 31.2157 50.6888 30.972V15.4852C50.6888 13.5843 49.1535 12.0369 47.2526 12.0369Z" fill="#00BEB4"/>
    <path d="M89 0H88V50H89V0Z" fill="#00BEB4"/>
  </svg>