<svg width="80" height="50" viewBox="0 0 80 50" fill="none" xmlns="http://www.w3.org/2000/svg">
<path d="M9.79639 11.5495V2.19155C9.79639 1.70415 9.90605 1.33861 10.1254 1.09491C10.3447 0.851218 10.6371 0.72937 10.9783 0.72937C11.3317 0.72937 11.6363 0.851218 11.8556 1.09491C12.0749 1.33861 12.1968 1.70415 12.1968 2.19155V11.5495C12.1968 12.0369 12.0871 12.4024 11.8556 12.6461C11.6363 12.8898 11.3439 13.0116 10.9783 13.0116C10.6128 13.0116 10.3447 12.8898 10.1254 12.6461C9.90605 12.4024 9.79639 12.0369 9.79639 11.5495Z" fill="white"/>
<path d="M15.4625 5.25004V5.5181C15.8524 5.00634 16.2789 4.62861 16.7419 4.38492C17.205 4.14122 17.7289 4.01937 18.3381 4.01937C18.9474 4.01937 19.447 4.14122 19.8978 4.3971C20.3608 4.65298 20.702 5.00634 20.9213 5.46936C21.0675 5.73743 21.165 6.02986 21.2016 6.34667C21.2503 6.66347 21.2625 7.05339 21.2625 7.54078V11.6592C21.2625 12.0979 21.165 12.4391 20.9579 12.6584C20.7507 12.8899 20.4949 12.9996 20.1659 12.9996C19.8491 12.9996 19.5688 12.8899 19.3617 12.6462C19.1545 12.4147 19.057 12.0857 19.057 11.6471V7.96725C19.057 7.23616 18.9596 6.67566 18.7524 6.29793C18.5453 5.90801 18.1432 5.72524 17.5461 5.72524C17.1562 5.72524 16.7907 5.84709 16.4739 6.0786C16.1449 6.31011 15.9134 6.6391 15.7671 7.0412C15.6575 7.37019 15.6087 7.99162 15.6087 8.88111V11.6471C15.6087 12.0979 15.4991 12.4269 15.2919 12.6584C15.0848 12.8777 14.8167 12.9996 14.4877 12.9996C14.1588 12.9996 13.9029 12.8899 13.6957 12.6462C13.4886 12.4147 13.3911 12.0857 13.3911 11.6471V5.26222C13.3911 4.83575 13.4886 4.53113 13.6714 4.32399C13.8541 4.11685 14.11 4.00719 14.4268 4.00719C14.6218 4.00719 14.7924 4.05593 14.9508 4.14122C15.1092 4.2387 15.231 4.37273 15.3285 4.5555C15.426 4.75046 15.4625 4.98197 15.4625 5.25004Z" fill="white"/>
<path d="M32.3509 42.7182C32.3143 42.7548 32.29 42.8035 32.2534 42.8401C32.29 42.8035 32.3265 42.767 32.3509 42.7182Z" fill="white"/>
<path d="M31.656 43.5834C31.6195 43.6321 31.5707 43.6809 31.5342 43.7296C31.5707 43.6687 31.6195 43.6199 31.656 43.5834Z" fill="white"/>
<path d="M6.98193 17.4714L7.14034 3.54414C7.1647 1.60675 5.60505 0.0349121 3.66767 0.0349121C1.73029 0.0349121 0.207185 1.58238 0.195 3.48321L0.0244141 30.1192C0.499621 24.9772 3.11935 20.4566 6.98193 17.4714Z" fill="white"/>
<path d="M29.0365 31.7641C29.0365 33.7624 28.5491 35.6145 27.5743 37.296C26.5995 38.9775 25.2592 40.3178 23.5777 41.2926C21.9449 42.243 20.1659 42.7304 18.2407 42.7548C20.1172 42.8401 21.6037 44.3876 21.6037 46.2762C21.6037 48.1649 20.2268 49.5783 18.4722 49.7732C20.3365 49.7367 22.1155 49.4321 23.8092 48.8594C23.8457 48.8472 23.8945 48.835 23.931 48.8228C24.1016 48.7619 24.26 48.701 24.4306 48.6401C24.455 48.6279 24.4672 48.6279 24.4915 48.6157C25.381 48.2745 26.2583 47.848 27.0991 47.3607C28.7928 46.3615 30.2793 45.143 31.5465 43.7174C31.5831 43.6687 31.6318 43.6199 31.6684 43.5712C31.8755 43.3275 32.0705 43.0838 32.2654 42.8401C32.302 42.8035 32.3263 42.7548 32.3629 42.7183C32.7894 42.1578 33.1793 41.5729 33.557 40.9515C34.6171 39.1725 35.3725 37.1864 35.7625 35.0784L28.9146 30.0582C28.9877 30.6187 29.0365 31.1792 29.0365 31.7641Z" fill="white"/>
<path d="M47.2525 12.0369C49.1533 12.0369 50.6886 13.5722 50.6886 15.473L50.8349 3.53191C50.8592 1.59453 49.2996 0.0226898 47.3622 0.0226898C45.4492 0.0226898 43.9017 1.55798 43.8895 3.47099L43.8164 15.473C43.8164 13.5844 45.3517 12.0369 47.2525 12.0369Z" fill="white"/>
<path d="M77.2883 22.6986C75.6677 19.9448 73.4867 17.7638 70.7329 16.1432C67.9791 14.5226 64.9695 13.7184 61.6918 13.7184C57.5611 13.7184 53.8813 14.9612 50.6523 17.4591V30.9599C50.762 29.3149 51.2372 27.7675 52.0901 26.3175C53.0649 24.6603 54.4174 23.32 56.1233 22.2965C57.8292 21.273 59.6813 20.7612 61.6918 20.7612C63.7023 20.7612 65.5422 21.2486 67.2237 22.2234C68.9052 23.1982 70.2333 24.5385 71.2203 26.22C72.1951 27.9015 72.6825 29.7536 72.6825 31.7519C72.6825 33.7502 72.1951 35.6023 71.2203 37.2838C70.2455 38.9653 68.9052 40.3056 67.2237 41.2804C65.5422 42.2552 63.6901 42.7426 61.6918 42.7426C59.6935 42.7426 57.8414 42.243 56.1599 41.2439C54.4784 40.2447 53.138 38.9044 52.1389 37.2107C51.2616 35.7363 50.7742 34.1645 50.6645 32.483V46.0081C51.286 46.4955 51.9561 46.9463 52.6506 47.3484C55.4044 48.969 58.4141 49.7732 61.6918 49.7732C64.9695 49.7732 67.9791 48.969 70.7329 47.3484C73.4867 45.7279 75.6677 43.5468 77.2883 40.793C78.9089 38.0393 79.7131 35.0296 79.7131 31.7519C79.7131 28.462 78.9089 25.4524 77.2883 22.6986Z" fill="white"/>
<path d="M47.2526 12.0369C45.3518 12.0369 43.8165 13.5722 43.8165 15.473V15.5095V28.9372L43.7312 28.8763L28.1469 16.8255C27.8057 16.594 27.4523 16.3625 27.0868 16.1553C26.0633 15.5583 25.0032 15.0709 23.9066 14.6932C23.8822 14.681 23.8456 14.681 23.8213 14.6688C21.9936 14.0474 20.0684 13.7427 18.0335 13.7427C13.8907 13.7427 10.2109 14.9978 6.96971 17.4957V17.4713C3.10713 20.4566 0.487393 24.9771 0.0121855 30.1191L0 31.6909V31.7641C0 35.0418 0.804196 38.0514 2.42477 40.8052C4.04535 43.5589 6.22643 45.74 8.9802 47.3606C11.6243 48.9202 14.5121 49.7244 17.6436 49.7732C17.7654 49.7732 17.8995 49.7732 18.0213 49.7732C18.1675 49.7732 18.3137 49.7732 18.4478 49.761C20.2024 49.5539 21.5671 48.0673 21.5671 46.2518C21.5671 44.4362 20.0805 42.8157 18.2041 42.7304C18.1432 42.7304 18.0822 42.7304 18.0213 42.7304C17.9726 42.7304 17.9117 42.7304 17.8629 42.7304C15.9255 42.706 14.1344 42.2064 12.5016 41.2316C10.8201 40.2325 9.47977 38.8922 8.48062 37.1985C7.48147 35.517 6.98189 33.6892 6.98189 31.7397V31.6666C6.98189 29.7536 7.46928 27.9746 8.44406 26.3053C9.41885 24.6481 10.7714 23.3078 12.4772 22.2843C14.1831 21.2608 16.0352 20.749 18.0457 20.749C20.0562 20.749 21.8961 21.2364 23.5776 22.2112C25.2591 23.186 26.5872 24.5263 27.5742 26.2078C28.0981 27.0973 28.4759 28.0355 28.7074 29.0225C28.7927 29.3515 28.8536 29.6926 28.9023 30.046L29.0729 30.1678L35.7502 35.0539L50.6888 46.0203V32.4951C50.6766 32.2514 50.6644 32.0077 50.6644 31.7641V31.6909C50.6644 31.4473 50.6766 31.2157 50.6888 30.972V15.4852C50.6888 13.5843 49.1535 12.0369 47.2526 12.0369Z" fill="#00BEB4"/>
</svg>
