<svg width="40" height="50" viewBox="0 0 40 50" fill="none" xmlns="http://www.w3.org/2000/svg">
<rect width="40" height="50" fill="#ACA8A8"/>
<g clip-path="url(#clip0_11_2)">
<rect width="1440" height="9051" transform="translate(-400 -4466)" fill="#002D46"/>
<path fill-rule="evenodd" clip-rule="evenodd" d="M22.7394 0.0579373C16.6314 0.834117 11.2809 3.56611 6.88554 8.15284C0.520034 14.7958 -1.75021 24.325 1.42205 31.085C3.50304 35.5196 7.3955 38.2894 12.637 39.0653L14.5076 39.3422L14.4893 43.0083C14.4791 45.0576 14.3955 46.8905 14.2999 47.1648C14.091 47.7643 13.4145 48.107 12.1289 48.2643C11.3499 48.3598 11.1793 48.4366 11.1793 48.6919C11.1793 48.9482 11.3032 49.0029 11.8812 49.0017C12.2673 49.0009 14.2736 49.024 16.3397 49.0529C18.406 49.082 20.1818 49.0529 20.286 48.9885C20.7139 48.7241 20.2659 48.3811 19.3419 48.2657C17.1405 47.9907 17.0732 47.8406 16.9894 43.0274L16.9244 39.2811L17.5612 39.1781C21.8703 38.48 25.3575 37.1958 28.7259 35.0666L30.1709 34.1532L30.17 40.2159C30.1695 43.9615 30.1024 46.5183 29.9947 46.9062C29.7726 47.7058 29.1388 48.1022 27.8484 48.2482C27.0481 48.3387 26.8681 48.4146 26.8681 48.6618C26.8681 48.8468 27.0127 48.9897 27.2396 49.0288C27.4441 49.064 29.5289 49.0651 31.8726 49.0314C35.6921 48.9764 36.1287 48.9423 36.0825 48.7025C36.045 48.5076 35.6944 48.379 34.7937 48.2292C33.3437 47.9881 32.9155 47.6049 32.7505 46.4013C32.6942 45.9905 32.6481 42.6331 32.6481 38.9404V32.2266L33.9808 30.8302C35.5798 29.1546 38.1324 25.9051 38.049 25.6514C38.0163 25.5517 37.8338 25.4471 37.6436 25.419C37.3855 25.3809 37.1181 25.6113 36.5898 26.3273C35.7073 27.5232 34.2873 29.2038 33.3465 30.166L32.6304 30.8984L32.6805 24.3033C32.7195 19.1921 32.7801 17.6216 32.9503 17.3227C33.2309 16.8305 34.092 16.4704 34.9961 16.4672C35.8351 16.4642 36.2024 16.2718 36.0628 15.9084C35.9731 15.6748 35.4313 15.644 31.4147 15.644C27.0132 15.644 26.8681 15.6542 26.8681 15.9668C26.8681 16.2084 27.0134 16.3121 27.4461 16.3797C27.764 16.4292 28.2838 16.5102 28.6014 16.5597C28.919 16.6091 29.3834 16.8256 29.6336 17.0406L30.0884 17.4317L30.1358 25.1703L30.1832 32.9089L28.8146 33.8029C27.0652 34.9459 24.145 36.3354 22.5659 36.7764C21.0799 37.1912 18.6257 37.6066 17.6551 37.6076L16.9471 37.6082L16.9945 27.7408C17.0401 18.2533 17.0545 17.8526 17.3679 17.3342C17.7291 16.7371 18.4034 16.4722 19.5655 16.4707C20.0438 16.47 20.3037 16.3888 20.3685 16.2198C20.6051 15.603 20.2723 15.5599 15.6524 15.6078C11.4169 15.6519 11.1793 15.6707 11.1793 15.9617C11.1793 16.3292 11.4909 16.4695 12.3076 16.47C13.088 16.4704 14.0082 16.9346 14.271 17.4606C14.429 17.7766 14.4779 20.185 14.4797 27.7408L14.4822 37.6082L14.1106 37.6057C12.5057 37.5952 9.22713 36.1624 7.59087 34.7565C3.44524 31.1947 1.83145 25.7345 3.08902 19.5249C4.46963 12.7075 9.76995 5.9906 16.1622 2.95755C21.0095 0.657413 25.9441 0.348427 29.7654 2.1054C32.3452 3.29164 33.7098 4.71882 35.2746 7.86648C36.5057 10.3428 36.9919 10.8548 38.1133 10.8548C38.751 10.8548 39.4194 10.2031 39.4181 9.58233C39.4154 8.22517 38.1729 6.1498 36.2636 4.31322C34.2314 2.35857 32.0808 1.17646 29.2187 0.440908C27.9565 0.116399 24.0812 -0.112492 22.7394 0.0579373Z" fill="white"/>
</g>
<defs>
<clipPath id="clip0_11_2">
<rect width="1440" height="9051" fill="white" transform="translate(-400 -4466)"/>
</clipPath>
</defs>
</svg>
